<svg width="64" height="65" viewBox="0 0 64 65" fill="none" xmlns="http://www.w3.org/2000/svg">
<path d="M32 56.8654C18.3338 56.8654 7.21564 45.7473 7.21564 32.0811C7.21564 28.8706 7.81992 25.7465 9.01359 22.7951C10.8428 18.2705 13.9446 14.4126 17.9825 11.6383C22.1172 8.79846 26.9648 7.29669 32 7.29669C45.6662 7.29669 56.7844 18.4148 56.7844 32.0811C56.7844 45.7473 45.6662 56.8654 32 56.8654ZM32 9.17204C22.6114 9.17204 14.2705 14.7951 10.752 23.4991C9.64912 26.2258 9.09099 29.1132 9.09099 32.0811C9.09099 44.7129 19.3682 54.9901 32 54.9901C44.6318 54.9901 54.909 44.7129 54.909 32.0811C54.909 19.4492 44.6318 9.17204 32 9.17204Z" fill="#06005A"/>
<path d="M26.2742 43.3927C26.045 43.3927 25.8143 43.3064 25.6372 43.1337C25.5941 43.092 21.3075 38.9246 17.091 34.7244C16.7338 34.3687 16.7323 33.7897 17.088 33.4325C17.4437 33.0753 18.0227 33.0738 18.3799 33.4295C21.6424 36.6786 24.9466 39.9099 26.2876 41.2167C29.1468 38.5495 40.8975 27.549 46.5072 21.6788C46.528 21.6565 46.5518 21.6312 46.5756 21.6059C46.915 21.2323 47.4925 21.204 47.8661 21.5434C48.2396 21.8827 48.2679 22.4602 47.9286 22.8338C47.8973 22.868 47.8646 22.9038 47.8318 22.938C41.4095 29.658 27.0408 43.0132 26.8964 43.1471C26.7208 43.3108 26.4975 43.3927 26.2742 43.3927Z" fill="#00DB8E"/>
</svg>
