<svg width="64" height="65" viewBox="0 0 64 65" fill="none" xmlns="http://www.w3.org/2000/svg">
<path d="M44.0826 27.7365C43.5885 27.7187 43.1762 28.1056 43.1583 28.5983L42.9232 35.3466C42.8115 38.5495 41.1699 41.5501 38.531 43.3763C36.8268 44.5566 34.8249 45.1802 32.7427 45.1802C30.6619 45.1802 28.6616 44.5566 26.9559 43.3793C26.5005 43.0638 26.0673 42.708 25.6655 42.3211C23.7559 40.477 22.653 38.0003 22.5607 35.348L22.3033 27.9181C22.2854 27.4254 21.8731 27.037 21.3805 27.0563C20.8878 27.0727 20.5023 27.4865 20.5187 27.9791L20.7762 35.4091C20.8848 38.5272 22.1812 41.437 24.4257 43.6055C24.7814 43.9493 25.1594 44.2723 25.5539 44.5685V47.6316C25.5539 51.5951 28.7792 54.8204 32.7427 54.8204C36.7077 54.8204 39.933 51.5951 39.933 47.6316V44.5655C42.8071 42.4014 44.5827 39.0154 44.7092 35.4091L44.9444 28.6608C44.9622 28.1667 44.5752 27.7544 44.0826 27.7365ZM38.147 47.6316C38.147 50.6113 35.7224 53.0344 32.7427 53.0344C29.763 53.0344 27.3399 50.6113 27.3399 47.6316V45.6788C29.0069 46.5242 30.8465 46.9663 32.7427 46.9663C34.6404 46.9663 36.4815 46.5227 38.147 45.6773V47.6316Z" fill="#06005A"/>
<path d="M18.1239 55.0199H11.3845C10.1179 55.0199 9.08799 53.9899 9.08799 52.7233V45.9825C9.08799 45.4898 8.68761 45.0894 8.19496 45.0894C7.70231 45.0894 7.30194 45.4898 7.30194 45.9825V52.7218C7.30194 54.9737 9.13413 56.8044 11.3845 56.8044H18.1239C18.6165 56.8044 19.0169 56.404 19.0169 55.9114C19.0169 55.4187 18.6165 55.0199 18.1239 55.0199Z" fill="#06005A"/>
<path d="M18.1239 7.35623H11.3845C9.13264 7.35623 7.30194 9.18842 7.30194 11.4388V18.1782C7.30194 18.6708 7.70231 19.0712 8.19496 19.0712C8.68761 19.0712 9.08799 18.6708 9.08799 18.1782V11.4388C9.08799 10.1722 10.1179 9.14228 11.3845 9.14228H18.1239C18.6165 9.14228 19.0169 8.74191 19.0169 8.24925C19.0169 7.7566 18.6165 7.35623 18.1239 7.35623Z" fill="#06005A"/>
<path d="M52.6154 7.38748H45.8761C45.3834 7.38748 44.9831 7.78785 44.9831 8.2805C44.9831 8.77316 45.3834 9.17353 45.8761 9.17353H52.6154C53.882 9.17353 54.912 10.2035 54.912 11.4701V18.2094C54.912 18.7021 55.3124 19.1025 55.805 19.1025C56.2977 19.1025 56.698 18.7021 56.698 18.2094V11.4716C56.6995 9.21967 54.8673 7.38748 52.6154 7.38748Z" fill="#06005A"/>
<path d="M55.8065 45.0894C55.3139 45.0894 54.9135 45.4898 54.9135 45.9825V52.7218C54.9135 53.9884 53.8835 55.0184 52.6169 55.0184H45.8776C45.3849 55.0184 44.9846 55.4187 44.9846 55.9114C44.9846 56.404 45.3849 56.8044 45.8776 56.8044H52.6169C54.8688 56.8044 56.6995 54.9722 56.6995 52.7218V45.9825C56.6995 45.4898 56.2992 45.0894 55.8065 45.0894Z" fill="#06005A"/>
<path d="M44.0513 29.5255C44.0007 29.5255 43.9501 29.5211 43.901 29.5121C43.5676 29.4556 43.2938 29.213 43.197 28.8885C42.9812 28.1681 42.816 27.4433 42.6582 26.7408C42.0212 23.9233 41.4184 21.2502 37.5338 18.1975C36.1109 21.0909 34.0539 23.5631 31.5341 25.3968C28.608 27.5252 25.1207 28.7322 21.4519 28.8855C21.0887 28.9019 20.7687 28.698 20.6169 28.3944C19.8206 27.4567 16.5358 23.1761 17.4095 17.3611C17.8992 14.103 19.2059 11.8362 19.9412 10.7735C20.4592 10.0249 21.2391 9.53223 22.1366 9.38637C23.0311 9.24051 23.9241 9.45781 24.6519 9.9966L27.5959 12.0982C28.0945 12.4539 28.7538 12.5179 29.3179 12.2649C31.5178 11.2781 35.8504 9.77632 40.1429 10.8167C40.1503 10.8182 40.1592 10.8212 40.1667 10.8226C40.2962 10.8584 43.3563 11.7157 45.0798 14.356C47.0325 17.3477 47.7797 25.0515 44.7747 29.1594C44.602 29.3916 44.3326 29.5255 44.0513 29.5255ZM22.6739 11.1278C22.5905 11.1278 22.5057 11.1352 22.4223 11.1486C22.0071 11.2171 21.6469 11.4448 21.4072 11.7901C20.3059 13.3797 19.4917 15.5066 19.1732 17.626C18.4618 22.3679 21.0262 26.0442 21.8448 27.0757C28.2151 26.6321 33.7473 22.6046 36.3594 16.4725C36.4651 16.2239 36.6779 16.0364 36.9384 15.9635C37.1989 15.8906 37.4787 15.9382 37.699 16.0959C42.7817 19.7172 43.6614 23.0987 44.3416 26.0978C45.5665 22.5049 44.9503 17.4325 43.581 15.3324C42.2787 13.3365 39.875 12.5983 39.7023 12.5477C35.9323 11.6398 32.0357 13.0001 30.0458 13.8932C28.9057 14.4052 27.5676 14.2727 26.5555 13.5508L23.6056 11.4448C23.5996 11.4418 23.5952 11.4373 23.5907 11.4329C23.3213 11.2334 23.0028 11.1278 22.6739 11.1278Z" fill="#00DB8E"/>
</svg>
