<svg width="64" height="65" viewBox="0 0 64 65" fill="none" xmlns="http://www.w3.org/2000/svg">
<path d="M51.3191 51.9062H12.6809C9.70418 51.9062 7.27814 49.4801 7.27814 46.5034V24.282C7.27814 21.3053 9.70418 18.8792 12.6809 18.8792H29.0233C29.5144 18.8792 29.9163 19.2811 29.9163 19.7722C29.9163 20.2634 29.5144 20.6653 29.0233 20.6653H12.6809C10.6865 20.6653 9.06418 22.2876 9.06418 24.282V46.5034C9.06418 48.4978 10.6865 50.1201 12.6809 50.1201H51.3191C53.3135 50.1201 54.9358 48.4978 54.9358 46.5034V24.282C54.9358 22.2876 53.3135 20.6653 51.3191 20.6653H34.9767C34.4856 20.6653 34.0837 20.2634 34.0837 19.7722C34.0837 19.2811 34.4856 18.8792 34.9767 18.8792H51.3191C54.2958 18.8792 56.7219 21.3053 56.7219 24.282V46.5034C56.7219 49.4801 54.2958 51.9062 51.3191 51.9062Z" fill="#06005A"/>
<path d="M34.9767 25.9639H29.0232C28.5321 25.9639 28.1302 25.562 28.1302 25.0708V13.149C28.1302 12.6578 28.5321 12.256 29.0232 12.256H34.9767C35.4679 12.256 35.8698 12.6578 35.8698 13.149V25.0708C35.8698 25.562 35.4679 25.9639 34.9767 25.9639ZM29.9163 24.1778H34.0837V14.042H29.9163V24.1778Z" fill="#00DB8E"/>
<path d="M19.7358 45.6699C18.7237 45.6699 17.6967 45.4764 16.7591 45.0746H16.7442C16.4912 44.9704 16.2084 44.896 15.9107 44.8662L14.6754 44.7173C13.8865 44.628 13.2912 43.9583 13.2912 43.1694V41.9341C13.2912 39.4039 15.36 37.335 17.8902 37.335H21.5963C24.1265 37.335 26.1954 39.4039 26.1954 41.9341V43.1694C26.1954 43.9583 25.6 44.628 24.8112 44.7173L23.5163 44.8662C23.2484 44.896 22.9805 44.9704 22.7274 45.0746C21.7898 45.4615 20.7628 45.6699 19.7358 45.6699ZM15.0921 42.9611L16.1191 43.0801C16.5656 43.1397 17.0121 43.2439 17.4288 43.4225H17.4437C18.9023 44.0327 20.5842 44.0327 22.0428 43.4076C22.4447 43.2439 22.8763 43.1248 23.3079 43.0801L24.4093 42.9462V41.9043C24.4093 40.3564 23.1442 39.0913 21.5963 39.0913H17.8902C16.3423 39.0913 15.0772 40.3564 15.0772 41.9043V42.9611H15.0921Z" fill="#06005A"/>
<path d="M19.7507 35.7127C17.8307 35.7127 16.2679 34.2094 16.1935 32.2746L16.1042 29.789C16.0744 28.8215 16.4167 27.8987 17.1014 27.1992C17.7712 26.4997 18.6791 26.1127 19.6614 26.1127H19.84C20.8074 26.1127 21.7153 26.4997 22.4 27.1992C23.0698 27.8987 23.427 28.8215 23.3972 29.789L23.3079 32.2746C23.2484 34.2094 21.6856 35.7127 19.7507 35.7127ZM19.6763 27.8987C19.1851 27.8987 18.7386 28.0922 18.3963 28.4346C18.0539 28.7769 17.8902 29.2383 17.9051 29.7294L17.9944 32.215C18.0242 33.1676 18.7981 33.9266 19.7656 33.9266C20.7181 33.9266 21.507 33.1825 21.5367 32.215L21.626 29.7294C21.6409 29.2383 21.4623 28.7918 21.1349 28.4346C20.8074 28.0773 20.346 27.8987 19.8549 27.8987H19.6763Z" fill="#06005A"/>
<path d="M48.9228 44.4792H32.2977C31.8065 44.4792 31.4047 44.0773 31.4047 43.5862C31.4047 43.095 31.8065 42.6932 32.2977 42.6932H48.9228C49.414 42.6932 49.8158 43.095 49.8158 43.5862C49.8158 44.0773 49.4288 44.4792 48.9228 44.4792Z" fill="#06005A"/>
<path d="M48.9228 38.8085H32.2977C31.8065 38.8085 31.4047 38.4067 31.4047 37.9155C31.4047 37.4243 31.8065 37.0225 32.2977 37.0225H48.9228C49.414 37.0225 49.8158 37.4243 49.8158 37.9155C49.8158 38.4067 49.4288 38.8085 48.9228 38.8085Z" fill="#06005A"/>
<path d="M41.7191 33.1378H32.2977C31.8065 33.1378 31.4047 32.736 31.4047 32.2448C31.4047 31.7536 31.8065 31.3518 32.2977 31.3518H41.7191C42.2102 31.3518 42.6121 31.7536 42.6121 32.2448C42.6121 32.736 42.2102 33.1378 41.7191 33.1378Z" fill="#00DB8E"/>
<path d="M48.9228 33.1378H46.3926C45.9014 33.1378 45.4995 32.736 45.4995 32.2448C45.4995 31.7536 45.9014 31.3518 46.3926 31.3518H48.9228C49.414 31.3518 49.8158 31.7536 49.8158 32.2448C49.8158 32.736 49.4288 33.1378 48.9228 33.1378Z" fill="#00DB8E"/>
</svg>
